<mxfile host="app.diagrams.net" modified="2021-11-11T15:33:03.828Z" agent="5.0 (Macintosh; Intel Mac OS X 10_15_7) AppleWebKit/537.36 (KHTML, like Gecko) Chrome/95.0.4638.69 Safari/537.36" etag="5iy_fzDRUUt4REZhyP9A" version="15.7.3" type="github">
  <diagram id="BQZGS3TxGwnYLphWOaI2" name="Page-1">
    <mxGraphModel dx="844" dy="443" grid="1" gridSize="10" guides="1" tooltips="1" connect="1" arrows="1" fold="1" page="1" pageScale="1" pageWidth="827" pageHeight="1169" background="#EEEEEE" math="0" shadow="0">
      <root>
        <mxCell id="0" />
        <mxCell id="1" parent="0" />
        <mxCell id="Tk_SjcsIPn881NdWUmbV-1" value="User select main search bar" style="whiteSpace=wrap;html=1;fillColor=#E6D0DE;strokeColor=#A680B8;rounded=1;fontColor=#1A1A1A;strokeWidth=2;" vertex="1" parent="1">
          <mxGeometry x="200" y="5" width="120" height="60" as="geometry" />
        </mxCell>
        <mxCell id="Tk_SjcsIPn881NdWUmbV-4" value="" style="endArrow=block;html=1;endFill=0;labelBackgroundColor=#EEEEEE;strokeColor=#A680B8;fontColor=#000000;strokeWidth=2;" edge="1" parent="1">
          <mxGeometry width="50" height="50" relative="1" as="geometry">
            <mxPoint x="260" y="65" as="sourcePoint" />
            <mxPoint x="260" y="105" as="targetPoint" />
          </mxGeometry>
        </mxCell>
        <mxCell id="Tk_SjcsIPn881NdWUmbV-5" value="User fill at least 3 characters" style="whiteSpace=wrap;html=1;fillColor=#E6D0DE;strokeColor=#A680B8;rounded=1;fontColor=#1A1A1A;strokeWidth=2;" vertex="1" parent="1">
          <mxGeometry x="200" y="105" width="120" height="60" as="geometry" />
        </mxCell>
        <mxCell id="Tk_SjcsIPn881NdWUmbV-6" value="Match with &lt;br&gt;one or more &lt;br&gt;recipes" style="rhombus;whiteSpace=wrap;html=1;fillColor=#FFFF99;strokeColor=#A680B8;rounded=1;fontColor=#1A1A1A;strokeWidth=2;" vertex="1" parent="1">
          <mxGeometry x="204" y="205" width="112" height="110" as="geometry" />
        </mxCell>
        <mxCell id="Tk_SjcsIPn881NdWUmbV-7" value="" style="endArrow=block;html=1;endFill=0;labelBackgroundColor=#EEEEEE;strokeColor=#A680B8;fontColor=#000000;strokeWidth=2;" edge="1" parent="1">
          <mxGeometry width="50" height="50" relative="1" as="geometry">
            <mxPoint x="260" y="165" as="sourcePoint" />
            <mxPoint x="260" y="207" as="targetPoint" />
          </mxGeometry>
        </mxCell>
        <mxCell id="Tk_SjcsIPn881NdWUmbV-8" value="" style="endArrow=block;html=1;endFill=0;strokeColor=#7EA6E0;strokeWidth=2;arcSize=20;labelBackgroundColor=#EEEEEE;fontColor=#7EA6E0;" edge="1" parent="1">
          <mxGeometry width="50" height="50" relative="1" as="geometry">
            <mxPoint x="315" y="260.5" as="sourcePoint" />
            <mxPoint x="405" y="260.5" as="targetPoint" />
          </mxGeometry>
        </mxCell>
        <mxCell id="Tk_SjcsIPn881NdWUmbV-9" value="No" style="text;html=1;strokeColor=none;fillColor=none;align=center;verticalAlign=middle;whiteSpace=wrap;fontColor=#7EA6E0;rounded=1;fontStyle=1;fontSize=16;" vertex="1" parent="1">
          <mxGeometry x="320" y="233" width="60" height="30" as="geometry" />
        </mxCell>
        <mxCell id="Tk_SjcsIPn881NdWUmbV-10" value="Yes" style="text;html=1;strokeColor=none;fillColor=none;align=center;verticalAlign=middle;whiteSpace=wrap;rounded=1;fontColor=#A680B8;fontStyle=1;fontSize=17;" vertex="1" parent="1">
          <mxGeometry x="208" y="320" width="60" height="30" as="geometry" />
        </mxCell>
        <mxCell id="Tk_SjcsIPn881NdWUmbV-11" value="" style="endArrow=block;html=1;endFill=0;labelBackgroundColor=#EEEEEE;strokeColor=#A680B8;fontColor=#000000;strokeWidth=2;" edge="1" parent="1">
          <mxGeometry width="50" height="50" relative="1" as="geometry">
            <mxPoint x="259.5" y="312" as="sourcePoint" />
            <mxPoint x="259.5" y="372" as="targetPoint" />
          </mxGeometry>
        </mxCell>
        <mxCell id="Tk_SjcsIPn881NdWUmbV-13" value="Page updated with the recipes" style="whiteSpace=wrap;html=1;fillColor=#F5AB50;strokeColor=#A680B8;rounded=1;fontColor=#1A1A1A;strokeWidth=2;" vertex="1" parent="1">
          <mxGeometry x="200" y="372" width="120" height="60" as="geometry" />
        </mxCell>
        <mxCell id="Tk_SjcsIPn881NdWUmbV-24" value="" style="edgeStyle=orthogonalEdgeStyle;orthogonalLoop=1;jettySize=auto;html=1;endArrow=block;endFill=0;labelBackgroundColor=#EEEEEE;strokeColor=#A680B8;fontColor=#000000;strokeWidth=2;" edge="1" parent="1" source="Tk_SjcsIPn881NdWUmbV-15" target="Tk_SjcsIPn881NdWUmbV-19">
          <mxGeometry relative="1" as="geometry" />
        </mxCell>
        <mxCell id="Tk_SjcsIPn881NdWUmbV-15" value="Specific search fields updated" style="whiteSpace=wrap;html=1;fillColor=#F5AB50;strokeColor=#A680B8;rounded=1;fontColor=#1A1A1A;strokeWidth=2;" vertex="1" parent="1">
          <mxGeometry x="200" y="483" width="120" height="60" as="geometry" />
        </mxCell>
        <mxCell id="Tk_SjcsIPn881NdWUmbV-16" value="" style="endArrow=block;html=1;endFill=0;labelBackgroundColor=#EEEEEE;strokeColor=#A680B8;fontColor=#000000;strokeWidth=2;" edge="1" parent="1">
          <mxGeometry width="50" height="50" relative="1" as="geometry">
            <mxPoint x="260" y="433" as="sourcePoint" />
            <mxPoint x="259.5" y="483" as="targetPoint" />
          </mxGeometry>
        </mxCell>
        <mxCell id="Tk_SjcsIPn881NdWUmbV-17" value="User fill ingredient specific field with more characters" style="whiteSpace=wrap;html=1;fillColor=#E6D0DE;strokeColor=#A680B8;rounded=1;fontColor=#1A1A1A;strokeWidth=2;" vertex="1" parent="1">
          <mxGeometry x="70" y="593" width="120" height="60" as="geometry" />
        </mxCell>
        <mxCell id="Tk_SjcsIPn881NdWUmbV-18" value="" style="endArrow=block;html=1;endFill=0;labelBackgroundColor=#EEEEEE;strokeColor=#A680B8;fontColor=#000000;strokeWidth=2;" edge="1" parent="1">
          <mxGeometry width="50" height="50" relative="1" as="geometry">
            <mxPoint x="130" y="563" as="sourcePoint" />
            <mxPoint x="129.5" y="593" as="targetPoint" />
          </mxGeometry>
        </mxCell>
        <mxCell id="Tk_SjcsIPn881NdWUmbV-19" value="User fill cooking tool specific field with more characters" style="whiteSpace=wrap;html=1;fillColor=#E6D0DE;strokeColor=#A680B8;rounded=1;fontColor=#1A1A1A;strokeWidth=2;" vertex="1" parent="1">
          <mxGeometry x="200" y="593" width="120" height="60" as="geometry" />
        </mxCell>
        <mxCell id="Tk_SjcsIPn881NdWUmbV-20" value="User fill kitchen equipment specific field with more characters" style="whiteSpace=wrap;html=1;fillColor=#E6D0DE;strokeColor=#A680B8;rounded=1;fontColor=#1A1A1A;strokeWidth=2;" vertex="1" parent="1">
          <mxGeometry x="330" y="593" width="120" height="60" as="geometry" />
        </mxCell>
        <mxCell id="Tk_SjcsIPn881NdWUmbV-22" value="" style="endArrow=none;html=1;labelBackgroundColor=#EEEEEE;strokeColor=#182E3E;fontColor=#1A1A1A;" edge="1" parent="1">
          <mxGeometry width="50" height="50" relative="1" as="geometry">
            <mxPoint x="260" y="563" as="sourcePoint" />
            <mxPoint x="259.5" y="543" as="targetPoint" />
          </mxGeometry>
        </mxCell>
        <mxCell id="Tk_SjcsIPn881NdWUmbV-23" value="" style="endArrow=none;html=1;labelBackgroundColor=#EEEEEE;strokeColor=#A680B8;fontColor=#000000;strokeWidth=2;" edge="1" parent="1">
          <mxGeometry width="50" height="50" relative="1" as="geometry">
            <mxPoint x="130" y="563" as="sourcePoint" />
            <mxPoint x="390" y="563" as="targetPoint" />
          </mxGeometry>
        </mxCell>
        <mxCell id="Tk_SjcsIPn881NdWUmbV-25" value="" style="endArrow=block;html=1;endFill=0;labelBackgroundColor=#EEEEEE;strokeColor=#A680B8;fontColor=#000000;strokeWidth=2;" edge="1" parent="1">
          <mxGeometry width="50" height="50" relative="1" as="geometry">
            <mxPoint x="390" y="563" as="sourcePoint" />
            <mxPoint x="389.5" y="593" as="targetPoint" />
          </mxGeometry>
        </mxCell>
        <mxCell id="Tk_SjcsIPn881NdWUmbV-26" value="Ingredient field updated" style="whiteSpace=wrap;html=1;fillColor=#F5AB50;strokeColor=#A680B8;rounded=1;fontColor=#1A1A1A;strokeWidth=2;" vertex="1" parent="1">
          <mxGeometry x="70" y="693" width="120" height="60" as="geometry" />
        </mxCell>
        <mxCell id="Tk_SjcsIPn881NdWUmbV-27" value="Cooking tool field updated" style="whiteSpace=wrap;html=1;fillColor=#F5AB50;strokeColor=#A680B8;rounded=1;fontColor=#1A1A1A;strokeWidth=2;" vertex="1" parent="1">
          <mxGeometry x="200" y="693" width="120" height="60" as="geometry" />
        </mxCell>
        <mxCell id="Tk_SjcsIPn881NdWUmbV-28" value="Kitchen equipment field updated" style="whiteSpace=wrap;html=1;fillColor=#F5AB50;strokeColor=#A680B8;rounded=1;fontColor=#1A1A1A;strokeWidth=2;" vertex="1" parent="1">
          <mxGeometry x="330" y="693" width="120" height="60" as="geometry" />
        </mxCell>
        <mxCell id="Tk_SjcsIPn881NdWUmbV-29" value="" style="endArrow=block;html=1;endFill=0;labelBackgroundColor=#EEEEEE;strokeColor=#A680B8;fontColor=#000000;strokeWidth=2;" edge="1" parent="1">
          <mxGeometry width="50" height="50" relative="1" as="geometry">
            <mxPoint x="130" y="653" as="sourcePoint" />
            <mxPoint x="129.5" y="693" as="targetPoint" />
          </mxGeometry>
        </mxCell>
        <mxCell id="Tk_SjcsIPn881NdWUmbV-31" value="" style="endArrow=block;html=1;endFill=0;labelBackgroundColor=#EEEEEE;strokeColor=#A680B8;fontColor=#000000;strokeWidth=2;" edge="1" parent="1">
          <mxGeometry width="50" height="50" relative="1" as="geometry">
            <mxPoint x="260" y="653" as="sourcePoint" />
            <mxPoint x="259.5" y="693" as="targetPoint" />
          </mxGeometry>
        </mxCell>
        <mxCell id="Tk_SjcsIPn881NdWUmbV-32" value="" style="endArrow=block;html=1;endFill=0;labelBackgroundColor=#EEEEEE;strokeColor=#A680B8;fontColor=#000000;strokeWidth=2;" edge="1" parent="1">
          <mxGeometry width="50" height="50" relative="1" as="geometry">
            <mxPoint x="390" y="653" as="sourcePoint" />
            <mxPoint x="389.5" y="693" as="targetPoint" />
          </mxGeometry>
        </mxCell>
        <mxCell id="Tk_SjcsIPn881NdWUmbV-33" value="User choose a key word in the field" style="whiteSpace=wrap;html=1;fillColor=#E6D0DE;strokeColor=#A680B8;rounded=1;fontColor=#1A1A1A;strokeWidth=2;" vertex="1" parent="1">
          <mxGeometry x="70" y="793" width="120" height="60" as="geometry" />
        </mxCell>
        <mxCell id="Tk_SjcsIPn881NdWUmbV-34" value="" style="endArrow=block;html=1;endFill=0;labelBackgroundColor=#EEEEEE;strokeColor=#A680B8;fontColor=#000000;strokeWidth=2;" edge="1" parent="1">
          <mxGeometry width="50" height="50" relative="1" as="geometry">
            <mxPoint x="130" y="753" as="sourcePoint" />
            <mxPoint x="129.5" y="793" as="targetPoint" />
          </mxGeometry>
        </mxCell>
        <mxCell id="Tk_SjcsIPn881NdWUmbV-36" value="User choose a key word in the field" style="whiteSpace=wrap;html=1;fillColor=#E6D0DE;strokeColor=#A680B8;rounded=1;fontColor=#1A1A1A;strokeWidth=2;" vertex="1" parent="1">
          <mxGeometry x="200" y="793" width="120" height="60" as="geometry" />
        </mxCell>
        <mxCell id="Tk_SjcsIPn881NdWUmbV-37" value="" style="endArrow=block;html=1;endFill=0;labelBackgroundColor=#EEEEEE;strokeColor=#A680B8;fontColor=#000000;strokeWidth=2;" edge="1" parent="1">
          <mxGeometry width="50" height="50" relative="1" as="geometry">
            <mxPoint x="260" y="753" as="sourcePoint" />
            <mxPoint x="259.5" y="793" as="targetPoint" />
          </mxGeometry>
        </mxCell>
        <mxCell id="Tk_SjcsIPn881NdWUmbV-38" value="User choose a key word in the field" style="whiteSpace=wrap;html=1;fillColor=#E6D0DE;strokeColor=#A680B8;rounded=1;fontColor=#1A1A1A;strokeWidth=2;" vertex="1" parent="1">
          <mxGeometry x="330" y="793" width="120" height="60" as="geometry" />
        </mxCell>
        <mxCell id="Tk_SjcsIPn881NdWUmbV-39" value="" style="endArrow=block;html=1;endFill=0;labelBackgroundColor=#EEEEEE;strokeColor=#A680B8;fontColor=#000000;strokeWidth=2;" edge="1" parent="1">
          <mxGeometry width="50" height="50" relative="1" as="geometry">
            <mxPoint x="390" y="753" as="sourcePoint" />
            <mxPoint x="389.5" y="793" as="targetPoint" />
          </mxGeometry>
        </mxCell>
        <mxCell id="Tk_SjcsIPn881NdWUmbV-41" value="Key word appears as a tag" style="whiteSpace=wrap;html=1;fillColor=#F5AB50;strokeColor=#A680B8;rounded=1;fontColor=#1A1A1A;strokeWidth=2;" vertex="1" parent="1">
          <mxGeometry x="200" y="903" width="120" height="60" as="geometry" />
        </mxCell>
        <mxCell id="Tk_SjcsIPn881NdWUmbV-49" value="" style="edgeStyle=orthogonalEdgeStyle;orthogonalLoop=1;jettySize=auto;html=1;endArrow=block;endFill=0;labelBackgroundColor=#EEEEEE;strokeColor=#A680B8;fontColor=#000000;strokeWidth=2;" edge="1" parent="1">
          <mxGeometry relative="1" as="geometry">
            <mxPoint x="260" y="853" as="sourcePoint" />
            <mxPoint x="260" y="903" as="targetPoint" />
          </mxGeometry>
        </mxCell>
        <mxCell id="Tk_SjcsIPn881NdWUmbV-50" value="" style="endArrow=none;html=1;endFill=0;labelBackgroundColor=#EEEEEE;strokeColor=#A680B8;fontColor=#000000;strokeWidth=2;" edge="1" parent="1">
          <mxGeometry width="50" height="50" relative="1" as="geometry">
            <mxPoint x="130" y="853" as="sourcePoint" />
            <mxPoint x="129.5" y="873" as="targetPoint" />
          </mxGeometry>
        </mxCell>
        <mxCell id="Tk_SjcsIPn881NdWUmbV-51" value="" style="endArrow=none;html=1;labelBackgroundColor=#EEEEEE;strokeColor=#182E3E;fontColor=#1A1A1A;" edge="1" parent="1">
          <mxGeometry width="50" height="50" relative="1" as="geometry">
            <mxPoint x="260" y="873" as="sourcePoint" />
            <mxPoint x="259.5" y="853" as="targetPoint" />
          </mxGeometry>
        </mxCell>
        <mxCell id="Tk_SjcsIPn881NdWUmbV-52" value="" style="endArrow=none;html=1;labelBackgroundColor=#EEEEEE;strokeColor=#A680B8;fontColor=#000000;strokeWidth=2;" edge="1" parent="1">
          <mxGeometry width="50" height="50" relative="1" as="geometry">
            <mxPoint x="130" y="873" as="sourcePoint" />
            <mxPoint x="390" y="873" as="targetPoint" />
          </mxGeometry>
        </mxCell>
        <mxCell id="Tk_SjcsIPn881NdWUmbV-53" value="" style="endArrow=none;html=1;endFill=0;labelBackgroundColor=#EEEEEE;strokeColor=#A680B8;fontColor=#000000;strokeWidth=2;" edge="1" parent="1">
          <mxGeometry width="50" height="50" relative="1" as="geometry">
            <mxPoint x="390" y="853" as="sourcePoint" />
            <mxPoint x="389.5" y="873" as="targetPoint" />
          </mxGeometry>
        </mxCell>
        <mxCell id="Tk_SjcsIPn881NdWUmbV-54" value="Page updated with the recipes &amp;amp; &lt;br&gt;Specific search fields updated" style="whiteSpace=wrap;html=1;fillColor=#F5AB50;strokeColor=#A680B8;rounded=1;fontColor=#1A1A1A;strokeWidth=2;" vertex="1" parent="1">
          <mxGeometry x="200" y="1003" width="120" height="60" as="geometry" />
        </mxCell>
        <mxCell id="Tk_SjcsIPn881NdWUmbV-56" value="" style="endArrow=block;html=1;endFill=0;labelBackgroundColor=#EEEEEE;strokeColor=#A680B8;fontColor=#000000;strokeWidth=2;" edge="1" parent="1">
          <mxGeometry width="50" height="50" relative="1" as="geometry">
            <mxPoint x="260" y="963" as="sourcePoint" />
            <mxPoint x="259.5" y="1003" as="targetPoint" />
          </mxGeometry>
        </mxCell>
        <mxCell id="Tk_SjcsIPn881NdWUmbV-58" value="User select a recipe" style="whiteSpace=wrap;html=1;fillColor=#E6D0DE;strokeColor=#A680B8;rounded=1;fontColor=#1A1A1A;strokeWidth=2;" vertex="1" parent="1">
          <mxGeometry x="200" y="1103" width="120" height="60" as="geometry" />
        </mxCell>
        <mxCell id="Tk_SjcsIPn881NdWUmbV-59" value="" style="endArrow=block;html=1;endFill=0;labelBackgroundColor=#EEEEEE;strokeColor=#A680B8;fontColor=#1A1A1A;strokeWidth=2;" edge="1" parent="1">
          <mxGeometry width="50" height="50" relative="1" as="geometry">
            <mxPoint x="260" y="1063" as="sourcePoint" />
            <mxPoint x="259.5" y="1103" as="targetPoint" />
          </mxGeometry>
        </mxCell>
        <mxCell id="Tk_SjcsIPn881NdWUmbV-60" value="Message appears with search tips" style="whiteSpace=wrap;html=1;fillColor=#F5AB50;strokeColor=#7EA6E0;strokeWidth=2;rounded=1;fontColor=#1A1A1A;" vertex="1" parent="1">
          <mxGeometry x="405" y="230" width="120" height="60" as="geometry" />
        </mxCell>
        <mxCell id="Tk_SjcsIPn881NdWUmbV-61" value="A1" style="text;html=1;strokeColor=none;fillColor=none;align=center;verticalAlign=middle;whiteSpace=wrap;fontColor=#7EA6E0;rounded=1;fontSize=20;fontStyle=1" vertex="1" parent="1">
          <mxGeometry x="435" y="203" width="60" height="30" as="geometry" />
        </mxCell>
        <mxCell id="Tk_SjcsIPn881NdWUmbV-64" value="" style="endArrow=classic;html=1;fontColor=#1A1A1A;strokeColor=#67AB9F;strokeWidth=2;labelBackgroundColor=#EEEEEE;" edge="1" parent="1">
          <mxGeometry width="50" height="50" relative="1" as="geometry">
            <mxPoint x="520" y="553" as="sourcePoint" />
            <mxPoint x="260" y="553" as="targetPoint" />
          </mxGeometry>
        </mxCell>
        <mxCell id="Tk_SjcsIPn881NdWUmbV-65" value="" style="endArrow=none;html=1;fontColor=#1A1A1A;strokeColor=#67AB9F;strokeWidth=2;endFill=0;labelBackgroundColor=#EEEEEE;" edge="1" parent="1">
          <mxGeometry width="50" height="50" relative="1" as="geometry">
            <mxPoint x="320" y="1032.5" as="sourcePoint" />
            <mxPoint x="520" y="1033" as="targetPoint" />
            <Array as="points">
              <mxPoint x="450" y="1032.5" />
            </Array>
          </mxGeometry>
        </mxCell>
        <mxCell id="Tk_SjcsIPn881NdWUmbV-66" value="" style="endArrow=none;html=1;fontColor=#1A1A1A;strokeColor=#67AB9F;strokeWidth=2;labelBackgroundColor=#EEEEEE;" edge="1" parent="1">
          <mxGeometry width="50" height="50" relative="1" as="geometry">
            <mxPoint x="520" y="1032" as="sourcePoint" />
            <mxPoint x="520" y="552" as="targetPoint" />
          </mxGeometry>
        </mxCell>
        <mxCell id="Tk_SjcsIPn881NdWUmbV-68" value="A3" style="text;html=1;strokeColor=none;fillColor=none;align=center;verticalAlign=middle;whiteSpace=wrap;fontColor=#67AB9F;rounded=1;arcSize=0;fontSize=20;fontStyle=1" vertex="1" parent="1">
          <mxGeometry x="520" y="823" width="60" height="30" as="geometry" />
        </mxCell>
        <mxCell id="Tk_SjcsIPn881NdWUmbV-69" value="User choose a key word in the field" style="whiteSpace=wrap;html=1;fillColor=#E6D0DE;strokeColor=#EA6B66;rounded=1;fontColor=#1A1A1A;strokeWidth=2;" vertex="1" parent="1">
          <mxGeometry x="550" y="105" width="120" height="60" as="geometry" />
        </mxCell>
        <mxCell id="Tk_SjcsIPn881NdWUmbV-70" value="" style="endArrow=none;html=1;endFill=0;labelBackgroundColor=#EEEEEE;strokeColor=#EA6B66;fontColor=#1A1A1A;strokeWidth=2;" edge="1" parent="1">
          <mxGeometry width="50" height="50" relative="1" as="geometry">
            <mxPoint x="610" y="163" as="sourcePoint" />
            <mxPoint x="610" y="933" as="targetPoint" />
          </mxGeometry>
        </mxCell>
        <mxCell id="Tk_SjcsIPn881NdWUmbV-71" value="User select specific search field" style="whiteSpace=wrap;html=1;fillColor=#E6D0DE;strokeColor=#EA6B66;rounded=1;fontColor=#1A1A1A;strokeWidth=2;" vertex="1" parent="1">
          <mxGeometry x="550" y="4" width="120" height="60" as="geometry" />
        </mxCell>
        <mxCell id="Tk_SjcsIPn881NdWUmbV-72" value="" style="endArrow=block;html=1;endFill=0;labelBackgroundColor=#EEEEEE;strokeColor=#EA6B66;fontColor=#1A1A1A;strokeWidth=2;" edge="1" parent="1">
          <mxGeometry width="50" height="50" relative="1" as="geometry">
            <mxPoint x="610" y="64" as="sourcePoint" />
            <mxPoint x="609.5" y="105" as="targetPoint" />
          </mxGeometry>
        </mxCell>
        <mxCell id="Tk_SjcsIPn881NdWUmbV-73" value="" style="endArrow=classic;html=1;fontColor=#1A1A1A;strokeColor=#EA6B66;strokeWidth=2;labelBackgroundColor=#EEEEEE;entryX=1;entryY=0.5;entryDx=0;entryDy=0;" edge="1" parent="1" target="Tk_SjcsIPn881NdWUmbV-41">
          <mxGeometry width="50" height="50" relative="1" as="geometry">
            <mxPoint x="610" y="932.5" as="sourcePoint" />
            <mxPoint x="350" y="932.5" as="targetPoint" />
          </mxGeometry>
        </mxCell>
        <mxCell id="Tk_SjcsIPn881NdWUmbV-74" value="A2" style="text;html=1;strokeColor=none;fillColor=none;align=center;verticalAlign=middle;whiteSpace=wrap;fontColor=#EA6B66;rounded=1;arcSize=0;fontSize=20;fontStyle=1" vertex="1" parent="1">
          <mxGeometry x="610" y="423" width="60" height="30" as="geometry" />
        </mxCell>
      </root>
    </mxGraphModel>
  </diagram>
</mxfile>
